<svg xmlns="http://www.w3.org/2000/svg" width="64" height="64" viewBox="0 0 64 64" fill="none">
  <defs>
    <linearGradient id="opiina-g" x1="10" y1="10" x2="54" y2="54" gradientUnits="userSpaceOnUse">
      <stop stop-color="#2563EB" />
      <stop offset="1" stop-color="#7C3AED" />
    </linearGradient>
  </defs>

  <path
    d="M20 8h23a17 17 0 0 1 11.43 29.86c-.3.28-.46.68-.44 1.09v.16c.12 1.65.12 4.17-.05 5.89l-.04.37c-.1.98-.93 1.63-1.92 1.63H43.2c-.75 0-1.48-.13-2.17-.4-3.1-1.22-6.65-1.9-10.45-1.9A19 19 0 0 1 13 18.5c0-5.39 3.93-9.85 9.1-10.44.63-.07 1.27-.06 1.9.02Z"
    fill="url(#opiina-g)"
  />
  <path
    d="M28.5 17.5c-6.63 0-12 5.37-12 12s5.37 12 12 12 12-5.37 12-12-5.37-12-12-12Zm0 5a7 7 0 1 1 0 14 7 7 0 0 1 0-14Z"
    fill="#fff"
    fill-opacity="0.98"
  />
  <path
    d="M30.4 12.9c4.3.72 7.84 3.72 9.41 7.7"
    stroke="#fff"
    stroke-opacity="0.95"
    stroke-width="2.6"
    stroke-linecap="round"
  />
  <path
    d="M34.2 42.9l4.2 3.8M41.8 40.6l2.2 4.7M47.3 43.6"
    stroke="#fff"
    stroke-opacity="0.95"
    stroke-width="2.3"
    stroke-linecap="round"
  />
  <path
    d="M21 11.3c.38 0 .76.02 1.14.06"
    stroke="#fff"
    stroke-opacity="0.95"
    stroke-width="1.8"
    stroke-linecap="round"
  />
</svg>
